,
  Hottest scene tracker on the net !!!   http://www.scenetime.com
 
         Please seed back after your download is completed

           Credit goes  to all seeders and  http://www.scenetime.com
 



...................................NFO:.................................................                                         
                                                                               
                                                                                
                                                              
                                                                           
                                                                           
                                                   
                                                                             
                                                                               
                                                  
                                                               
                                                         
                                                                                  
                                                                           
                                                                     
                                                                  
                                                                       
                                                                           
                                                                           
                                                                   
                                                               
                                                                 
                                           
                                                        
                                                               
                           _        _______          
                          ( (    /|(  ____ )|     /|
                          |    ( || (    )|| )   ( |
                          |    | || (____)|| | _ | |
                          | ( ) ||  _____)| |( )| |
                          | |    || (      | || || |
                          | )    || )      | () () |
                          |/    )_)|/       (_______)

 

                               _________ ______            ______  
             |     /||     /|__   __/(  __   |     /|(  __   
             (    / )| )   ( |   ) (   | (    )| )   ( || (    )
               (_) / | |   | |   | |   | |   ) || (___) || |   ) |
               ) _ (  ( (   ) )   | |   | |   | ||  ___  || |   | |
              / ( )    _/ /    | |   | |   ) || (   ) || |   ) |
             ( /    )     /  ___) (___| (__/  )| )   ( || (__/  )
             |/     |   _/   _______/(______/ |/     |(______/ 
                                                                   
                       ______   _______  _______  _______ 
                      / ___   / ___   )(  __   )(  ____ )
                      /   )  )/   )  || (  )  || (    )|
                          /  /     /   )| | /   || (____)|
                         /  /    _/   / | (/ /) ||  _____)
                        /  /    /   _/  |   / | || (      
                       /  /    (   (__/|  (__) || )      
                       _/     _______/(_______)|/       
                       
           
-==Our releases are True HD Xvid in 5.1 sound and work on computers, Xbox 360, PS3, WDHD TV and some upscaling dvd players.==-


Source: Zodiac.2007.DC.720p.BluRay.DTS.x264-DON

General
Complete name                    : Zodiac 2007 Directors Cut BRRip MP4 720p-NPW.mp4
Format                           : MPEG-4
Format profile                   : Base Media
Codec ID                         : isom
File size                        : 3.85 GiB
Duration                         : 2h 42mn
Overall bit rate                 : 3 390 Kbps
Movie name                       : Zodiac 2007 Directors Cut BRRip MP4 720p-NPW
Performer                        : Avidemux
Writing application              : Lavf52.61.0

Video
ID                               : 1
Format                           : AVC
Format/Info                      : Advanced Video Codec
Format profile                   : High@L3.1
Format settings, CABAC           : Yes
Format settings, ReFrames        : 4 frames
Codec ID                         : avc1
Codec ID/Info                    : Advanced Video Coding
Duration                         : 2h 42mn
Bit rate mode                    : Variable
Bit rate                         : 3 000 Kbps
Width                            : 1 280 pixels
Height                           : 532 pixels
Display aspect ratio             : 2.40:1
Frame rate mode                  : Constant
Frame rate                       : 23.976 fps
Resolution                       : 24 bits
Colorimetry                      : 4:2:0
Scan type                        : Progressive
Bits/(Pixel*Frame)               : 0.184
Stream size                      : 3.41 GiB (88%)
Writing library                  : x264 core 93 r1542 5b86182


Audio
ID                               : 2
Format                           : AAC
Format/Info                      : Advanced Audio Codec
Format version                   : Version 4
Format profile                   : LC
Format settings, SBR             : No
Codec ID                         : 40
Duration                         : 2h 42mn
Bit rate mode                    : Variable
Bit rate                         : 384 Kbps
Channel(s)                       : 6 channels
Channel positions                : Front: L C R, Rear: L R, LFE
Sampling rate                    : 48.0 KHz
Resolution                       : 16 bits
Stream size                      : 446 MiB (11%)
 
http://www.imdb.com/title/tt0443706/

Plot: A San Francisco cartoonist becomes an amateur detective obsessed with tracking down the Zodiac killer.